<svg xmlns="http://www.w3.org/2000/svg" width="173" height="50" viewBox="0 0 173 50">
    <g fill="none" fill-rule="evenodd">
        <path fill="#283A97" d="M.47 40.014c0 2.351 1.918 4.257 4.283 4.257h13.262c3.102 0 5.17 1.944 5.519 2.565.792 2.154 3.158 3.297 5.35 2.585a4.252 4.252 0 0 0 2.787-5.225c-1.255-4.056-6.835-8.439-13.656-8.439H4.753c-2.365 0-4.283 1.906-4.283 4.257z"/>
        <path fill="#00C2F3" d="M32.367 13.196a13.12 13.12 0 0 1-3.521 8.94 13.275 13.275 0 0 0-9.755-4.257c2.596 0 4.701-2.093 4.701-4.673 0-2.581-2.105-4.673-4.7-4.673H4.751c-2.37 0-4.291-1.91-4.291-4.267C.46 1.91 2.382 0 4.753 0H19.09C26.42.008 32.36 5.911 32.367 13.196z"/>
        <path fill="#2D6CB5" d="M32.367 31.075a13.101 13.101 0 0 1-3.502 8.916 16.033 16.033 0 0 0-10.131-4.206h.357c2.596 0 4.701-2.092 4.701-4.673 0-2.58-2.105-4.673-4.7-4.673H4.751a4.289 4.289 0 0 1-3.826-2.085 4.235 4.235 0 0 1 0-4.339 4.289 4.289 0 0 1 3.827-2.085H19.09c7.309.008 13.24 5.88 13.276 13.145z"/>
        <path fill="#231F20" fill-rule="nonzero" d="M56.441 26.168c0 3.038-2.03 4.883-6.525 4.883h-6.403a.41.41 0 0 1-.437-.439v-16.2a.405.405 0 0 1 .437-.44h5.99c4.494 0 6.327 1.897 6.327 4.42a3.837 3.837 0 0 1-2.52 3.739 4.098 4.098 0 0 1 3.131 4.037zm-6.99-9.402h-3.08v4.323h3.324c1.932 0 2.858-.776 2.858-2.112 0-1.337-.902-2.21-3.102-2.21zm3.671 9.178c0-1.285-.978-2.182-3.225-2.182h-3.525v4.49h3.52c2.149 0 3.23-.873 3.23-2.308z"/>
        <path fill="#231F20" d="M66.135 20.164l-.17 2.238a.368.368 0 0 1-.155.326.373.373 0 0 1-.361.038 2.336 2.336 0 0 0-.659-.074c-1.781 0-2.881 1.163-2.881 2.743v5.172a.41.41 0 0 1-.442.44h-2.294a.42.42 0 0 1-.47-.44v-10.28a.415.415 0 0 1 .47-.44h1.758c.249 0 .455.193.47.44l.094 1.748c.395-1.36 1.786-2.407 3.714-2.407.188-.005.377.004.564.028a.396.396 0 0 1 .362.468z"/>
        <path fill="#231F20" fill-rule="nonzero" d="M67.282 15.94a2.088 2.088 0 0 1 1.25-1.985 2.11 2.11 0 0 1 2.317.414 2.08 2.08 0 0 1 .475 2.293 2.102 2.102 0 0 1-1.964 1.291 2.01 2.01 0 0 1-1.474-.564 1.985 1.985 0 0 1-.604-1.45zm.536 14.667v-10.28a.405.405 0 0 1 .442-.44h2.294a.42.42 0 0 1 .47.44v10.28a.415.415 0 0 1-.47.44H68.26a.401.401 0 0 1-.442-.44zM85.235 14.14v16.467a.415.415 0 0 1-.47.44h-1.71a.43.43 0 0 1-.471-.44l-.07-1.018a5.04 5.04 0 0 1-3.837 1.677c-3.102 0-5.5-2.504-5.5-5.808s2.299-5.804 5.402-5.804a4.616 4.616 0 0 1 3.47 1.482v-7.01a.396.396 0 0 1 .437-.435h2.275c.126-.019.255.021.348.109a.41.41 0 0 1 .126.34zm-3.05 11.318a2.757 2.757 0 0 0-.796-2.087 2.792 2.792 0 0 0-2.086-.824 2.924 2.924 0 0 0-2.816 2.913 2.924 2.924 0 0 0 2.816 2.914 2.768 2.768 0 0 0 2.096-.818c.55-.556.836-1.32.785-2.098zM99.404 20.36v9.958c0 3.27-2.2 5.682-6.158 5.682-2.294 0-3.836-.51-4.983-1.238a.397.397 0 0 1-.122-.608l.902-1.528a.413.413 0 0 1 .611-.173c1.045.533 2.201.817 3.376.827 1.904 0 3.173-1.093 3.173-2.551v-.874a4.682 4.682 0 0 1-3.394 1.402c-3.103 0-5.402-2.505-5.402-5.808 0-3.304 2.35-5.804 5.472-5.804a5.106 5.106 0 0 1 3.841 1.654l.07-.972a.41.41 0 0 1 .47-.416h1.712a.4.4 0 0 1 .432.449zM96.4 25.458a2.729 2.729 0 0 0-.785-2.097 2.764 2.764 0 0 0-2.096-.814 2.924 2.924 0 0 0-2.816 2.913 2.924 2.924 0 0 0 2.816 2.914 2.778 2.778 0 0 0 2.093-.821c.55-.556.836-1.317.788-2.095zM113.01 25.897a.42.42 0 0 1-.438.44h-7.794c.367 1.308 1.612 2.256 3.323 2.256a4.248 4.248 0 0 0 2.614-.85.373.373 0 0 1 .611.121l.856 1.505a.433.433 0 0 1-.099.631c-.757.584-2.125 1.266-4.325 1.266-3.568 0-6.182-2.528-6.182-5.808a5.646 5.646 0 0 1 1.676-4.155 5.716 5.716 0 0 1 4.187-1.649c3.399 0 5.599 2.477 5.599 5.832.004.138-.005.275-.029.411zm-8.232-1.598h5.227l-.023-.075a2.384 2.384 0 0 0-2.421-2.037 2.677 2.677 0 0 0-2.783 2.112z"/>
        <path fill="#231F20" d="M134.094 24.85v5.757a.41.41 0 0 1-.442.44h-2.294a.42.42 0 0 1-.47-.44v-5.294c0-1.673-.88-2.804-2.247-2.804-1.467 0-2.422 1.14-2.422 2.743v5.355a.396.396 0 0 1-.437.44h-2.299a.42.42 0 0 1-.47-.44v-5.294c0-1.673-.907-2.804-2.223-2.804-1.542 0-2.445 1.21-2.445 2.692v5.406a.41.41 0 0 1-.442.44h-2.256a.42.42 0 0 1-.47-.44v-10.28a.415.415 0 0 1 .47-.44h1.41c.25 0 .455.193.47.44l.099 1.528a4.165 4.165 0 0 1 3.76-2.187 4.71 4.71 0 0 1 4.006 1.968 4.27 4.27 0 0 1 3.667-1.968c2.91-.014 5.035 2.075 5.035 5.182z"/>
        <path fill="#231F20" fill-rule="nonzero" d="M147.548 25.897a.42.42 0 0 1-.437.44h-7.794c.366 1.308 1.612 2.256 3.323 2.256a4.248 4.248 0 0 0 2.624-.85.373.373 0 0 1 .61.121l.856 1.505a.433.433 0 0 1-.098.631c-.757.584-2.125 1.266-4.325 1.266-3.569 0-6.182-2.528-6.182-5.808a5.646 5.646 0 0 1 1.67-4.15 5.716 5.716 0 0 1 4.178-1.654c3.394 0 5.594 2.477 5.594 5.832.008.137.002.275-.019.411zm-8.231-1.598h5.227l-.023-.075a2.384 2.384 0 0 0-2.421-2.037 2.677 2.677 0 0 0-2.783 2.112z"/>
        <path fill="#231F20" d="M161.181 24.879v5.728a.41.41 0 0 1-.441.44h-2.313a.42.42 0 0 1-.47-.44v-5.294c0-1.7-1.002-2.804-2.469-2.804a2.57 2.57 0 0 0-1.896.798 2.538 2.538 0 0 0-.694 1.927v5.373a.41.41 0 0 1-.442.44h-2.294a.42.42 0 0 1-.47-.44v-10.28a.415.415 0 0 1 .47-.44h1.41a.443.443 0 0 1 .47.44l.1 1.453c.657-1.163 2.072-2.112 4.127-2.112 2.98-.014 4.912 2.028 4.912 5.21zM164.768 26.916v-4.37h-1.833a.405.405 0 0 1-.437-.467v-1.766a.396.396 0 0 1 .437-.44h1.932v-3.401a.396.396 0 0 1 .442-.435h2.195a.415.415 0 0 1 .47.435v3.402h3.714a.42.42 0 0 1 .47.44v1.77a.424.424 0 0 1-.47.467h-3.713v4.056c0 1.309.832 1.795 1.979 1.795.502-.016.994-.14 1.443-.365.268-.144.47-.098.611.173l.733 1.58c.118.266.047.434-.197.63-.993.6-2.143.895-3.305.846-2.783 0-4.47-1.556-4.47-4.35z"/>
    </g>
</svg>
