<svg xmlns="http://www.w3.org/2000/svg" width="30" height="30" viewBox="0 0 30 30">
  <g fill="none" fill-rule="evenodd">
    <circle cx="15" cy="15" r="15" fill="#283A97"/>
    <path fill="#FFF" d="M22.8949961,20.8943333 L19.7814363,20.8943333 L19.7814363,16.0203889 C19.7814363,14.858 19.7616023,13.3631111 18.1628208,13.3631111 C16.5418719,13.3631111 16.2949183,14.6301111 16.2949183,15.9371667 L16.2949183,20.8943333 L13.1813586,20.8943333 L13.1813586,10.8726667 L16.1689137,10.8726667 L16.1689137,12.2431111 L16.211693,12.2431111 C16.6274306,11.4548333 17.6436349,10.6241667 19.1588022,10.6241667 C22.3128079,10.6241667 22.8949961,12.6992778 22.8949961,15.3977778 L22.8949961,20.8943333 Z M9.66956184,9.50338889 C8.67163599,9.50338889 7.86466165,8.69411111 7.86466165,7.69777778 C7.86466165,6.70027778 8.67163599,5.891 9.66956184,5.891 C10.6655432,5.891 11.4748509,6.70027778 11.4748509,7.69777778 C11.4748509,8.69411111 10.6655432,9.50338889 9.66956184,9.50338889 Z M8.11200415,20.8943333 L11.2275084,20.8943333 L11.2275084,10.8726667 L8.11200415,10.8726667 L8.11200415,20.8943333 Z"/>
  </g>
</svg>
