<?xml version="1.0" encoding="UTF-8"?>
<svg width="129px" height="130px" viewBox="0 0 129 130" version="1.1" xmlns="http://www.w3.org/2000/svg" xmlns:xlink="http://www.w3.org/1999/xlink">
    <!-- Generator: Sketch 51.2 (57519) - http://www.bohemiancoding.com/sketch -->
    <title>Step 2</title>
    <desc>Created with Sketch.</desc>
    <defs>
        <polygon id="path-1" points="0 85 66 85 66 0 0 0"></polygon>
    </defs>
    <g id="Page-1" stroke="none" stroke-width="1" fill="none" fill-rule="evenodd">
        <g id="Nexa-home" transform="translate(-373.000000, -2496.000000)">
            <g id="Group-17" transform="translate(374.000000, 2497.000000)">
                <g id="Group-16">
                    <g id="Step-2">
                        <path d="M112.592601,128.302549 L14.4025513,128.302549 L12.9462778,128.224881 L11.5239841,128.019385 C5.41896194,126.755663 0.681218834,121.603691 0.0825286187,115.382167 L6.45386747e-06,113.912949 L6.45386747e-06,14.3896002 C-0.00646587278,7.56129561 4.85586952,1.68765917 11.5239841,0.283164291 L12.9462778,0.0760498381 L14.4025513,0 L112.592601,0 L114.061819,0.0760498381 C120.263926,0.682830462 125.454732,5.39792043 126.716836,11.5029425 L126.92395,12.9203821 L127,14.3896002 L127,113.912949 C126.982201,116.419358 126.440144,118.563316 125.247618,120.765525 L124.542134,121.945106 L123.71044,123.058347 C122.150609,124.888397 120.398227,126.215224 118.183073,127.168274 L116.862718,127.645608 L115.47764,128.019385 L114.061819,128.224881 L112.592601,128.302549" id="Stroke-1" stroke="#FBB03B" fill="#FBB03B"></path>
                        <g id="Group-7" transform="translate(31.000000, 22.000000)">
                            <path d="M48.115528,13 L53.325199,14.0361219 L51.7057271,24.3170775 L54.9532982,25.0005288 L53.4373542,33.1143845 L56.2202823,33.6896024 L55.183771,39.4016497 L53.667827,39.8564732 L53.6974064,39.8759309 L53.8255837,39.9099818 L53.9968977,39.9488972 C57.9864187,41.3911983 58.5496597,44.7014374 57.5981891,48.4883898 L57.4391999,49.252104 L57.2876055,50.0754074 C56.0033667,56.5329275 54.6784563,62.9807187 53.3597083,69.4382387 L53.1883943,70.2128979 L53.0491246,70.9194552 L52.9086225,71.5591267 L52.8001647,72.1063741 L52.7064966,72.5855197 L52.6288507,72.9527835 L52.5696919,73.2239751 L52.541345,73.3881493 L52.5253228,73.4465224 L52.4908135,73.46598 L52.3835882,73.500031 L52.2110417,73.5438108 L51.9657793,73.6216415 L51.6367085,73.6836629 C49.8902917,74.0375496 47.9047748,74.0472785 46.1337085,73.9402612 L45.0343409,73.8672948 L43.856095,73.742036 L42.5854135,73.5729973 C38.1941057,72.8992749 29.667845,71.1529474 26.1405021,68.1370059 L26.0591588,68.0445819 L26.0123247,67.9862088 L26,67.9728316 L26.0123247,67.908378 L26.0431366,67.7393394 C27.4272058,60.8221315 28.8297622,53.909788 30.1928793,46.9864996 L30.3346139,46.2568363 L30.4689537,45.5879783 C31.5769485,40.8439508 31.0519142,36.4732678 36.9973727,36.6568997 L37.1107604,36.6568997 L36.4144121,35.6305067 L37.571706,29.7932004 L40.824207,30.2577527 L41.997523,22.7106022 L45.5729324,23.1690739 L48.115528,13" id="Fill-1" fill="#FFFFFF"></path>
                            <mask id="mask-2" fill="white">
                                <use xlink:href="#path-1"></use>
                            </mask>
                            <g id="Clip-4"></g>
                            <path d="M10.3242779,66.7009843 L10.886348,66.7009843 L10.886348,59.941578 L10.3242779,59.941578 L10.3242779,66.7009843 Z M9.14477304,66.7009843 L9.70563961,66.7009843 L9.70563961,59.941578 L9.14477304,59.941578 L9.14477304,66.7009843 Z M7.9616575,66.7009843 L8.52252407,66.7009843 L8.52252407,59.941578 L7.9616575,59.941578 L7.9616575,66.7009843 Z M5.52802613,66.7009843 L6.08889271,66.7009843 L6.08889271,59.941578 L5.52802613,59.941578 L5.52802613,66.7009843 Z M4.3545392,66.7009843 L4.91059147,66.7009843 L4.91059147,59.941578 L4.3545392,59.941578 L4.3545392,66.7009843 Z M2.58648556,66.7009843 L3.14855571,66.7009843 L3.14855571,59.941578 L2.58648556,59.941578 L2.58648556,66.7009843 Z M12.7290234,66.2997301 L12.7290234,59.5355612 L12.6820839,59.5069852 C9.49982806,57.4459438 9.55278542,56.5553262 9.04126547,53.0523893 L9.04126547,53 L5.03576341,53 L5.03576341,53.0654866 C4.91540578,56.2231307 4.24501376,57.7626607 1.62001376,59.6546277 L1.57307428,59.6832037 L1.57307428,66.2997301 L0,66.2997301 L0,68 L14,68 L14,66.2997301 L12.7290234,66.2997301 Z" id="Fill-3" fill="#FFFFFF" mask="url(#mask-2)"></path>
                            <path d="M66,72.3647128 L65.3563602,68 L61.9625117,70.7618592 L63.1650371,71.2294624 L62.7928561,72.0458925 C58.6951801,80.3664779 54.8566796,83.1195852 45.6467351,82.0793557 L44.8593819,81.9693315 L45.1185575,80.6852982 L41,82.0643524 L44.2427652,85 L44.5007124,83.6922115 L45.9046824,83.8810032 C55.6882523,84.8662205 60.0438756,81.5917482 64.3343979,72.882327 L64.8023879,71.8708539 L66,72.3647128" id="Fill-5" fill="#FFFFFF" mask="url(#mask-2)"></path>
                            <path d="M44.9282767,4.35227022 L45.7928866,3.89940393 C48.6188347,2.56957834 52.3106209,2.54956215 55.3514934,2.92236368 L56.1387306,3.03245272 L55.8795932,4.32224593 L60,2.93737582 L56.760169,0 L56.4948909,1.28353816 L55.4485164,1.14967989 C45.5877874,0.0100080948 40.9884064,3.26138789 36.6665848,12.1298109 L36.2035763,13.1156082 L35,12.6427257 L35.6509137,17 L39.0233838,14.251527 L37.8198074,13.7586283 L38.1919336,12.9467216 C39.599381,10.0493782 41.4735213,6.93560968 44.0341914,4.96401501 L44.9282767,4.35227022" id="Fill-6" fill="#FFFFFF" mask="url(#mask-2)"></path>
                        </g>
                    </g>
                </g>
            </g>
        </g>
    </g>
</svg>