<?xml version="1.0" encoding="UTF-8"?>
<svg width="129px" height="130px" viewBox="0 0 129 130" version="1.1" xmlns="http://www.w3.org/2000/svg" xmlns:xlink="http://www.w3.org/1999/xlink">
    <!-- Generator: Sketch 51.2 (57519) - http://www.bohemiancoding.com/sketch -->
    <title>Step 3</title>
    <desc>Created with Sketch.</desc>
    <defs>
        <polygon id="path-1" points="0.104008556 0.254972549 23.8394204 0.254972549 23.8394204 57 0.104008556 57"></polygon>
        <polygon id="path-3" points="0 100 94 100 94 0 0 0"></polygon>
    </defs>
    <g id="Page-1" stroke="none" stroke-width="1" fill="none" fill-rule="evenodd">
        <g id="Nexa-home" transform="translate(-645.000000, -2494.000000)">
            <g id="Group-13" transform="translate(645.000000, 2495.000000)">
                <g id="Step-3" transform="translate(1.000000, 0.000000)">
                    <g id="tep-3" fill="#FBB03B" stroke="#FBB03B">
                        <path d="M112.592601,128.302549 L14.4025513,128.302549 L12.9462778,128.224881 L11.5239841,128.019385 C5.41896194,126.755663 0.681218834,121.603691 0.0825286187,115.382167 L6.45386747e-06,113.912949 L6.45386747e-06,14.3896002 C-0.00646587278,7.56129561 4.85586952,1.68765917 11.5239841,0.283164291 L12.9462778,0.0760498381 L14.4025513,0 L112.592601,0 L114.061819,0.0760498381 C120.263926,0.682830462 125.454732,5.39792043 126.716836,11.5029425 L126.92395,12.9203821 L127,14.3896002 L127,113.912949 C126.982201,116.419358 126.440144,118.563316 125.247618,120.765525 L124.542134,121.945106 L123.71044,123.058347 C122.150609,124.888397 120.398227,126.215224 118.183073,127.168274 L116.862718,127.645608 L115.47764,128.019385 L114.061819,128.224881 L112.592601,128.302549" id="Stroke-1"></path>
                    </g>
                    <g id="Group-22" transform="translate(17.000000, 14.000000)">
                        <g id="Group-3" transform="translate(15.000000, 43.000000)">
                            <mask id="mask-2" fill="white">
                                <use xlink:href="#path-1"></use>
                            </mask>
                            <g id="Clip-2"></g>
                            <path d="M23.6584684,54.8334039 L23.6392813,54.7633647 L23.623046,54.560698 C22.7522439,47.7683843 21.9788535,40.5975608 22.7005861,33.7635216 L22.8068535,32.756149 L22.9175487,31.783051 L23.0297198,30.9053255 L23.140415,30.0872078 L23.2525861,29.351051 L23.3647572,28.7221882 L23.4577412,28.1752863 L23.5522011,27.7267373 L23.6038588,27.4048549 L23.6392813,27.2156 L23.6584684,27.1440706 L23.6761797,27.1083059 L23.7337412,26.9890902 L23.7927786,26.8296392 C24.175046,25.3409333 22.1116877,24.6763059 21.1021476,24.1308941 L20.8084364,23.9997569 L20.6195166,23.9297176 L20.5457198,23.9058745 L21.230554,23.0266588 L21.230554,17.7126196 L18.0292492,17.7126196 L18.0292492,10.3629725 L14.7275807,10.3629725 L14.7275807,0.254972549 L10.0562439,0.254972549 L10.0562439,10.2616392 L6.16715294,10.2616392 L6.16715294,17.8303451 L3.05292834,17.8303451 L3.05292834,22.9327765 L3.53555936,23.8164627 L3.47652193,23.8328549 L3.29498182,23.8507373 C-2.19992727,24.7716784 1.22719572,28.6506588 1.05155936,32.4417176 L1.17996578,33.8812471 L1.30984813,35.4548941 C1.79100321,41.8672078 1.2921369,48.2497176 0.164521925,54.560698 L0.121719786,54.7633647 L0.104008556,54.8334039 L0.145334759,54.8587373 C5.30815829,57.6752078 18.4985968,57.752698 23.623046,54.8587373 L23.6584684,54.8334039" id="Fill-1" fill="#FFFFFF" mask="url(#mask-2)"></path>
                        </g>
                        <polygon id="Fill-4" fill="#FFFFFF" points="14 83.5033981 10.1189873 80 10.1189873 81.7041262 0 81.7041262 0 85.2754854 10.1189873 85.2754854 10.1189873 87"></polygon>
                        <polygon id="Fill-6" fill="#FFFFFF" points="42 83.5033981 45.8849558 80 45.8849558 81.7041262 56 81.7041262 56 85.2754854 45.8849558 85.2754854 45.8849558 87"></polygon>
                        <path d="M32.8542907,1.99847903 L31.9562172,1.92721084 L32.1019264,0 L33,0.0772072137 L32.8542907,1.99847903 Z M32.642732,4.88781053 L31.7278459,4.81060332 L31.8665499,2.87745347 L32.7870403,2.96653871 L32.642732,4.88781053 Z M32.4143608,7.77862678 L31.5148862,7.68954154 L31.6563923,5.7623307 L32.5768827,5.84547693 L32.4143608,7.77862678 Z M32.2028021,10.6442022 L31.2879159,10.572934 L31.4490368,8.65760122 L32.3471103,8.73035417 L32.2028021,10.6442022 Z M31.9730298,13.5409575 L31.0735552,13.4578113 L31.2206655,11.5424785 L32.1341506,11.6196857 L31.9730298,13.5409575 Z M31.7614711,16.4258347 L30.8521891,16.3545665 L31.0091068,14.4392337 L31.9057793,14.5105019 L31.7614711,16.4258347 Z M31.5485114,19.3211052 L30.6406305,19.237959 L30.7793345,17.3226262 L31.6942207,17.3938944 L31.5485114,19.3211052 Z M31.3201401,22.2044977 L30.4122592,22.1347143 L30.5677758,20.1956254 L31.4658494,20.2906497 L31.3201401,22.2044977 Z M31.1155867,25.101253 L30.1992995,25.0181068 L30.3323993,23.0790179 L31.2528897,23.1577099 L31.1155867,25.101253 Z M30.8844133,27.9846455 L29.9863398,27.897045 L30.1278459,25.9698341 L31.0245184,26.0455566 L30.8844133,27.9846455 Z M30.6742557,30.8814007 L29.7593695,30.7804375 L29.8924694,28.8606504 L30.8129597,28.9378576 L30.6742557,30.8814007 Z M30.4444834,33.7469762 L29.5478109,33.669769 L29.6921191,31.7499819 L30.6014011,31.8257044 L30.4444834,33.7469762 Z M30.2329247,36.6377924 L29.3194396,36.5605852 L29.4805604,34.6393134 L30.3730298,34.7165206 L30.2329247,36.6377924 Z M30.0045534,39.5271239 L29.1064799,39.4499167 L29.2465849,37.5301296 L30.1656743,37.6058521 L30.0045534,39.5271239 Z M29.8924694,41 L29,40.927247 L29.0392294,40.4075831 L29.937303,40.4966684 L29.8924694,41 Z" id="Fill-8" fill="#FFFFFF"></path>
                        <path d="M23.1551363,1.99847903 L23,0.0772072137 L23.907058,0 L24.0510133,1.92721084 L23.1551363,1.99847903 Z M23.3661775,4.88781053 L23.2222222,2.96653871 L24.1390636,2.87745347 L24.2774284,4.81060332 L23.3661775,4.88781053 Z M23.5939902,7.77862678 L23.4332635,5.84547693 L24.3459119,5.7623307 L24.4898672,7.68954154 L23.5939902,7.77862678 Z M23.8064291,10.6442022 L23.6596785,8.73035417 L24.5569532,8.65760122 L24.7190776,10.572934 L23.8064291,10.6442022 Z M24.0342418,13.5409575 L23.873515,11.6196857 L24.7861635,11.5424785 L24.9301188,13.4578113 L24.0342418,13.5409575 Z M24.245283,16.4258347 L24.0999301,14.5105019 L24.9944095,14.4392337 L25.1593291,16.3545665 L24.245283,16.4258347 Z M24.4577219,19.3211052 L24.3109713,17.3938944 L25.2236198,17.3226262 L25.3633823,19.237959 L24.4577219,19.3211052 Z M24.6855346,22.2044977 L24.5415793,20.2906497 L25.4374563,20.1956254 L25.5744235,22.1347143 L24.6855346,22.2044977 Z M24.8909853,25.101253 L24.7526205,23.1577099 L25.6638714,23.0790179 L25.8036338,25.0181068 L24.8909853,25.101253 Z M25.1174004,27.9846455 L24.9636618,26.0455566 L25.8749126,25.9698341 L26.0146751,27.897045 L25.1174004,27.9846455 Z M25.3312369,30.8814007 L25.1914745,28.9378576 L26.1083159,28.8606504 L26.2424878,30.7804375 L25.3312369,30.8814007 Z M25.5590496,33.7469762 L25.4025157,31.8257044 L26.3109713,31.7499819 L26.453529,33.669769 L25.5590496,33.7469762 Z M25.7700908,36.6377924 L25.6303284,34.7165206 L26.520615,34.6393134 L26.6813417,36.5605852 L25.7700908,36.6377924 Z M25.9979036,39.5271239 L25.8371768,37.6058521 L26.7554158,37.5301296 L26.8937806,39.4499167 L25.9979036,39.5271239 Z M26.1083159,41 L26.0649895,40.4966684 L26.9608665,40.4075831 L27,40.927247 L26.1083159,41 Z" id="Fill-10" fill="#FFFFFF"></path>
                        <mask id="mask-4" fill="white">
                            <use xlink:href="#path-3"></use>
                        </mask>
                        <g id="Clip-13"></g>
                        <path d="M28,20.9397656 L28.652,20.9397656 L28.652,19 L28,19 L28,20.9397656 Z M28,23.8733987 L28.652,23.8733987 L28.652,21.9111475 L28,21.9111475 L28,23.8733987 Z M28,26.7935405 L28.652,26.7935405 L28.652,24.8357863 L28,24.8357863 L28,26.7935405 Z M28,29.706187 L28.652,29.706187 L28.652,27.7724176 L28,27.7724176 L28,29.706187 Z M28,32.6458163 L28.652,32.6458163 L28.652,30.6880621 L28,30.6880621 L28,32.6458163 Z M28,35.564459 L28.652,35.564459 L28.652,33.6186972 L28,33.6186972 L28,35.564459 Z M28,38.4816026 L28.652,38.4816026 L28.652,36.541837 L28,36.541837 L28,38.4816026 Z M28,41 L28.652,41 L28.652,39.4544835 L28,39.4544835 L28,41 Z" id="Fill-12" fill="#FFFFFF" mask="url(#mask-4)"></path>
                        <path d="M46,42 L36.7495027,42 C35.7432434,41.977588 35.7571122,40.5790822 36.7495027,40.5432231 L44.4913815,40.5432231 L44.4913815,1.46275347 L36.7495027,1.46275347 C35.7432434,1.42689434 35.7571122,0.0358591249 36.7495027,0 L46,0 L46,42" id="Fill-14" fill="#FFFFFF" mask="url(#mask-4)"></path>
                        <polygon id="Fill-15" fill="#FFFFFF" mask="url(#mask-4)" points="52.4807266 25 52.4807266 19.3538654 51 19.3538654 51 18.291198 51.1462118 18.291198 51.6964998 18.2397786 52.1457687 18.0983753 52.4807266 17.8469916 52.7292867 17.4670595 52.8834736 17 54 17 54 25"></polygon>
                        <path d="M57.936456,22.1005772 L57.9587141,22.854644 L57.9758357,23.4670282 L58.0391858,23.9361553 C58.1693101,24.4635298 58.3268291,24.8460731 58.9860117,24.8334791 L59.283928,24.7894 L59.525343,24.6949449 C60.0441283,24.2384118 60.030431,23.2293161 60.0441283,22.6342487 L60.0612499,21.8628651 L60.0612499,20.8978485 L60.0441283,20.145356 L60.0218702,19.5313976 C59.8797607,18.9804093 59.9790661,18.404233 59.2650943,18.1917089 L58.9860117,18.1665209 L58.7069292,18.204303 L58.4757873,18.3097779 L58.2771764,18.5034109 L58.147052,18.8056673 L58.0391858,19.1929334 L57.9758357,19.7077138 L57.9587141,20.35788 L57.936456,21.1371349 L57.936456,22.1005772 Z M58.9860117,17 L59.7016957,17.0377821 L60.3026648,17.1763162 L60.799192,17.4140283 C61.9720235,18.0956796 62.0062667,20.195732 61.9994181,21.2929858 L61.9994181,21.9384292 L61.97716,22.5964667 C61.8915518,23.7566906 61.6586977,25.2900122 60.3026648,25.7796047 L59.7016957,25.9354557 L58.9860117,26 L58.2771764,25.9622179 L57.6779194,25.8173867 C56.3081893,25.3844674 56.0975933,23.8054924 56.020546,22.6783278 L56,21.7007172 L56,21.0536995 C56.0359554,19.9076439 56.0907446,18.216897 57.200226,17.4581074 L57.6779194,17.2188211 L58.2771764,17.0645443 L58.9860117,17 Z" id="Fill-16" fill="#FFFFFF" mask="url(#mask-4)"></path>
                        <polygon id="Fill-17" fill="#FFFFFF" mask="url(#mask-4)" points="63 21.927 66 21.927 66 21 63 21"></polygon>
                        <polygon id="Fill-18" fill="#FFFFFF" mask="url(#mask-4)" points="70.4867139 25 70.4867139 19.3538654 69 19.3538654 69 18.291198 69.1554473 18.291198 69.6988485 18.2397786 70.1492471 18.0983753 70.4867139 17.8469916 70.7338353 17.4670595 70.8839681 17 72 17 72 25"></polygon>
                        <path d="M78.5740674,18.4098985 L75.008189,18.4098985 L74.795068,20.4638644 L74.8158603,20.4638644 L75.1416062,20.1578523 C78.1807465,18.6726524 79.4508091,21.5100731 78.8582287,23.8620402 L78.7057519,24.3859457 L78.4926309,24.8521735 C77.4859373,26.5536647 73.0762384,26.4959871 73.0294557,23.7803302 L73,23.4743182 L73,23.2323924 L74.8782372,23.2323924 L74.8990295,23.5384044 L74.9475448,23.8828683 L75.0515063,24.1824717 L75.2282408,24.4628493 L75.4916098,24.6470974 L75.8572077,24.7047751 L76.2713208,24.6470974 L76.6022649,24.4227953 L76.8084551,24.0863423 L76.9488031,23.5816627 L76.988655,22.9504127 C77.0978145,21.8289025 76.6923648,20.4766816 75.2091812,21.2681474 L75.030714,21.5228904 L74.9215545,21.8657521 L73.1611403,21.8657521 L73.5059458,17 L78.5740674,17 L78.5740674,18.4098985" id="Fill-19" fill="#FFFFFF" mask="url(#mask-4)"></path>
                        <path d="M83.7170972,21.573859 L83.702337,21.2644492 L83.6678967,20.9503983 C83.5264453,19.929346 82.4883149,19.9974161 82.3849938,21.2474316 L82.3579336,21.8074633 L82.3419434,22.5036353 L82.3579336,23.2415777 L82.3849938,23.8201739 L82.4833948,24.2765534 L82.602706,24.5844161 L82.7859779,24.7561385 L83.0565806,24.8180205 L83.301353,24.7561385 L83.4870849,24.5844161 L83.6051661,24.2765534 L83.6888069,23.8201739 L83.7170972,23.2678775 L85,23.2678775 L84.9717097,23.9625024 L84.8585486,24.5472869 C84.3185732,26.6543675 80.9225092,26.6543675 81.0282903,23.315836 L81,22.5036353 L81.0282903,21.6666819 C81.0590406,18.5246256 84.1734317,18.2415157 84.8425584,20.3841784 L84.9507995,20.9503983 L85,21.573859 L83.7170972,21.573859" id="Fill-20" fill="#FFFFFF" mask="url(#mask-4)"></path>
                        <path d="M86,19.1982165 L87.5837175,19.1982165 L87.5837175,19.8983766 L87.6019386,19.8983766 L87.9451027,19.4955448 L88.3095247,19.217399 L88.7513864,19.0831217 L89.246393,19.0191801 L89.7778419,19.09591 L90.2181852,19.300523 L90.5385729,19.6442089 L90.7329313,20.101391 L90.7511524,20.101391 L90.9986557,19.6442089 C92.2741329,18.357385 94.1539433,19.0831217 93.9899533,21.0685072 L93.9899533,26 L92.3348699,26 L92.3348699,21.2475435 L92.2984277,20.8638942 L92.1769537,20.6049308 L91.9841137,20.4195003 L91.681947,20.3683471 L91.3448567,20.4450769 L91.053319,20.6480914 L90.8832554,21.0045656 L90.8240368,21.5272878 L90.8240368,26 L89.1674349,26 L89.1674349,21.2475435 L89.124919,20.8638942 L89.0155924,20.6049308 L88.8060497,20.4195003 L88.5205858,20.3683471 L88.1576822,20.4450769 L87.8919578,20.6480914 L87.7158205,21.0045656 L87.6611572,21.5272878 L87.6611572,26 L86,26 L86,19.1982165" id="Fill-21" fill="#FFFFFF" mask="url(#mask-4)"></path>
                    </g>
                </g>
            </g>
        </g>
    </g>
</svg>