<?xml version="1.0" encoding="UTF-8"?>
<svg width="129px" height="130px" viewBox="0 0 129 130" version="1.1" xmlns="http://www.w3.org/2000/svg" xmlns:xlink="http://www.w3.org/1999/xlink">
    <!-- Generator: Sketch 51.2 (57519) - http://www.bohemiancoding.com/sketch -->
    <title>Group 6</title>
    <desc>Created with Sketch.</desc>
    <defs>
        <polygon id="path-1" points="0 0 34 0 34 77 0 77"></polygon>
    </defs>
    <g id="Page-1" stroke="none" stroke-width="1" fill="none" fill-rule="evenodd">
        <g id="Nexa-home" transform="translate(-1189.000000, -2494.000000)">
            <g id="Group-11" transform="translate(1189.000000, 2495.000000)">
                <g id="Group-6" transform="translate(1.000000, 0.000000)">
                    <g id="Group-6-Copy-4" fill="#FBB03B" stroke="#FBB03B">
                        <path d="M112.592601,128.302549 L14.4025513,128.302549 L12.9462778,128.224881 L11.5239841,128.019385 C5.41896194,126.755663 0.681218834,121.603691 0.0825286187,115.382167 L6.45386747e-06,113.912949 L6.45386747e-06,14.3896002 C-0.00646587278,7.56129561 4.85586952,1.68765917 11.5239841,0.283164291 L12.9462778,0.0760498381 L14.4025513,0 L112.592601,0 L114.061819,0.0760498381 C120.263926,0.682830462 125.454732,5.39792043 126.716836,11.5029425 L126.92395,12.9203821 L127,14.3896002 L127,113.912949 C126.982201,116.419358 126.440144,118.563316 125.247618,120.765525 L124.542134,121.945106 L123.71044,123.058347 C122.150609,124.888397 120.398227,126.215224 118.183073,127.168274 L116.862718,127.645608 L115.47764,128.019385 L114.061819,128.224881 L112.592601,128.302549" id="Stroke-1"></path>
                    </g>
                    <g id="Group-3" transform="translate(47.000000, 25.000000)">
                        <mask id="mask-2" fill="white">
                            <use xlink:href="#path-1"></use>
                        </mask>
                        <g id="Clip-2"></g>
                        <path d="M8.96110005,23.8490006 L9.89352713,23.8490006 L9.89352713,12.0717163 L8.96110005,12.0717163 L8.96110005,23.8490006 Z M11.9655873,23.8490006 L12.8980144,23.8490006 L12.8980144,12.0717163 L11.9655873,12.0717163 L11.9655873,23.8490006 Z M13.9545093,23.8490006 L14.8869364,23.8490006 L14.8869364,12.0717163 L13.9545093,12.0717163 L13.9545093,23.8490006 Z M18.0999087,23.8490006 L19.0297777,23.8490006 L19.0297777,12.0717163 L18.0999087,12.0717163 L18.0999087,23.8490006 Z M20.0901097,23.8490006 L21.0378854,23.8490006 L21.0378854,12.0717163 L20.0901097,12.0717163 L20.0901097,23.8490006 Z M22.0956593,23.8490006 L23.0280864,23.8490006 L23.0280864,12.0717163 L22.0956593,12.0717163 L22.0956593,23.8490006 Z M33.948611,39.853396 L33.9025653,38.8157498 C33.5367571,34.7780091 31.027262,32.0425143 27.0762781,31.6806352 L27.0251161,31.6806352 L28.6341604,30.6741184 L28.6341604,23.1459953 L26.1758272,23.1459953 L26.1758272,11.3738993 L26.1285024,11.3375817 C20.7117278,7.81217874 20.7731222,6.11822134 19.9123218,0.0570705404 L19.9123218,0 L13.1052204,0 L13.1052204,0.0726352332 C12.8673172,5.69408346 11.8619843,8.20907841 7.2906614,11.6164491 L7.23949942,11.6475785 L7.23949942,23.1459953 L4.81697967,23.1459953 L4.81697967,23.3262863 L4.83232827,30.6572566 L6.74578632,31.5820588 L6.59869562,31.5353647 L6.35951337,31.5353647 L6.01800715,31.5664941 C-0.213522003,32.5781991 0.00519546162,37.2566864 7.92636278e-05,42.595376 L7.92636278e-05,43.0804756 L0.0154278576,43.6693398 C0.049962194,51.6553243 0.0819384315,59.6477941 0.0819384315,67.6350756 L0.096007976,68.632513 L0.096007976,73.9595291 L0.112635619,73.9750938 L0.174029995,74.0217879 L0.269958708,74.0892349 L0.433677043,74.203376 L0.62169732,74.31622 C2.12330143,75.1320693 3.86920399,75.5613954 5.523015,75.9271657 L6.47206972,76.1074567 L7.52984366,76.2877478 L8.7065692,76.4485829 C15.7937825,77.2436793 26.995698,77.6159349 33.663383,74.4303611 L33.8219851,74.3525376 L33.9191929,74.2863877 L33.948611,74.2643377 L33.948611,74.203376 C33.9895406,62.9993913 34.0317493,51.7902183 33.9652387,40.5914218 L33.948611,39.853396 Z" id="Fill-1" fill="#FFFFFF" mask="url(#mask-2)"></path>
                    </g>
                </g>
            </g>
        </g>
    </g>
</svg>