<?xml version="1.0" encoding="UTF-8"?>
<svg width="129px" height="130px" viewBox="0 0 129 130" version="1.1" xmlns="http://www.w3.org/2000/svg" xmlns:xlink="http://www.w3.org/1999/xlink">
    <!-- Generator: Sketch 51.2 (57519) - http://www.bohemiancoding.com/sketch -->
    <title>Step 4</title>
    <desc>Created with Sketch.</desc>
    <defs>
        <polygon id="path-1" points="0.121809677 0.523530194 40.574129 0.523530194 40.574129 50.9784231 0.121809677 50.9784231"></polygon>
        <polygon id="path-3" points="0 0.185670588 22.6709874 0.185670588 22.6709874 43 0 43"></polygon>
    </defs>
    <g id="Page-1" stroke="none" stroke-width="1" fill="none" fill-rule="evenodd">
        <g id="Nexa-home" transform="translate(-917.000000, -2494.000000)">
            <g id="Group-12" transform="translate(912.000000, 2495.000000)">
                <g id="Step-4" transform="translate(6.000000, 0.000000)">
                    <g id="Group-6-Copy-3" fill="#FBB03B" stroke="#FBB03B">
                        <path d="M112.592601,128.302549 L14.4025513,128.302549 L12.9462778,128.224881 L11.5239841,128.019385 C5.41896194,126.755663 0.681218834,121.603691 0.0825286187,115.382167 L6.45386747e-06,113.912949 L6.45386747e-06,14.3896002 C-0.00646587278,7.56129561 4.85586952,1.68765917 11.5239841,0.283164291 L12.9462778,0.0760498381 L14.4025513,0 L112.592601,0 L114.061819,0.0760498381 C120.263926,0.682830462 125.454732,5.39792043 126.716836,11.5029425 L126.92395,12.9203821 L127,14.3896002 L127,113.912949 C126.982201,116.419358 126.440144,118.563316 125.247618,120.765525 L124.542134,121.945106 L123.71044,123.058347 C122.150609,124.888397 120.398227,126.215224 118.183073,127.168274 L116.862718,127.645608 L115.47764,128.019385 L114.061819,128.224881 L112.592601,128.302549" id="Stroke-1"></path>
                    </g>
                    <g id="Group-9" transform="translate(44.000000, 15.000000)">
                        <g id="Group-3" transform="translate(5.000000, 0.000000)">
                            <mask id="mask-2" fill="white">
                                <use xlink:href="#path-1"></use>
                            </mask>
                            <g id="Clip-2"></g>
                            <path d="M9.08758387,43.7900385 L9.80442258,43.8214231 L10.5463903,43.9365 C14.8156806,44.8728077 16.3207774,49.2666538 21.7539387,48.0282692 L22.5025194,47.7615 L23.2193581,47.4502692 C26.6990677,45.4455769 29.2675194,42.0769615 33.895229,44.0031923 L34.3964871,44.2647308 L34.8421968,44.5458846 L35.2111968,44.3628077 C40.6694871,40.7038846 36.7586161,33.8738077 32.0039387,31.7357308 L31.3730677,31.4218846 L31.2513903,30.7196538 L31.1085516,29.8356538 L30.9564548,28.8823462 C29.6404871,23.2815 28.9355516,12.3714231 26.1607774,7.66634615 L25.7454871,7.02557692 L25.2971323,6.38480769 C20.3440677,0.0555769231 14.2046484,4.74103846 13.1426161,11.0127308 L13.0368097,11.5436538 L12.9098419,12.1635 L12.7564226,12.8761923 L12.5897774,13.6268077 L12.4046161,14.4637308 C11.6943903,17.7068077 10.9934226,20.9603462 10.2673258,24.2021154 L10.0662935,25.1397308 L9.86658387,26.0237308 L9.68274516,26.8776538 L9.50419677,27.6491923 L9.35077742,28.3658077 L9.20397097,29.0131154 L9.08758387,29.5701923 L8.96590645,30.0488077 L8.88919677,30.4031923 L8.84158387,30.6738846 L8.80322903,30.7981154 L8.67361613,31.4218846 L8.0877129,31.7187308 L7.76235806,31.9018077 L7.34574516,32.1306538 L6.8921,32.4275 L6.39877742,32.7544231 C4.7601,33.9679615 2.72332581,35.5031923 2.94022903,37.7838077 L2.90716452,38.6377308 L2.90716452,39.4537308 L2.94022903,40.2305 L3.01164839,40.9798077 L3.12274516,41.6715769 L3.30658387,42.3123462 L3.53935806,42.9060385 L3.85413226,43.4265 L4.23900323,43.8841923 L4.71777742,44.2791154 L5.30235806,44.5916538 L5.73484194,44.4308077 L6.26122903,44.2490385 L6.87622903,44.0659615 L7.56132581,43.9208077 L8.30461613,43.8214231 L9.08758387,43.7900385 Z M20.1126161,50.9784231 L19.0810032,50.9326538 L18.1697452,50.8123462 L17.3232935,50.6148846 L16.542971,50.3546538 C12.4575194,48.7618846 11.1587452,45.0401923 6.2771,47.1586538 L6.09855161,47.2371154 L6.02845484,47.2671923 L5.51926129,47.5483462 C3.97580968,47.1429615 2.71803548,46.5178846 1.72742258,45.2481154 L1.32800323,44.6596538 L1.01851935,44.0502692 C0.306970968,42.4836538 0.142970968,40.9588846 0.121809677,39.2575769 L0.136358065,38.5801923 L0.153551613,37.9250385 L0.186616129,37.3208846 L0.217035484,36.7271923 L0.338712903,35.9399615 L0.570164516,35.1854231 C1.16003548,33.6776538 2.36490645,32.4484231 3.58697097,31.4075 L4.18742258,30.9498077 L4.78787419,30.5221923 C7.01906774,28.9555769 5.87635806,30.4541923 6.76116452,27.2058846 L6.94632581,26.3846538 L7.14603548,25.4928077 L7.34574516,24.5617308 C8.50961613,19.3819615 9.63645484,14.1878077 10.7461,8.99888462 L10.9788742,8.27442308 L11.2777774,7.51334615 L11.6242935,6.74965385 L12.0409065,5.99511538 L12.5104226,5.23534615 C23.1082613,-7.19557692 31.5357452,7.63365385 32.0515516,19.0131923 L32.2525839,20.1103462 L32.4522935,21.1944231 L32.6361323,22.2824231 C34.7734226,32.9270385 31.9351645,27.0031923 37.9000032,32.8904231 L38.4290355,33.5311923 L38.9329387,34.2177308 C41.7804548,38.2938077 40.9445839,44.5864231 36.2586806,46.9232692 L35.7693258,47.1377308 L35.3222935,47.3051154 L34.9096484,47.4188846 L34.2338097,47.5692692 L33.7100677,47.1220385 C29.3429065,43.7181154 26.597229,50.6358077 21.0754548,50.9326538 L20.1126161,50.9784231 Z" id="Fill-1" fill="#FFFFFF" mask="url(#mask-2)"></path>
                        </g>
                        <polygon id="Fill-4" fill="#FFFFFF" points="17.3949759 37 17.1451096 36.978927 16.7081774 36.8314163 16.3727953 36.5693213 16.1242651 36.2189832 16 35.819914 16 35.3747476 18.2514698 23.1010624 18.4064671 22.6927737 18.6549973 22.3621916 19.0050775 22.1159013 19.4273116 22 19.8776056 22 20.2985035 22.1475108 20.6405665 22.4096058 20.8890967 22.7599438 21 23.1590131 21 23.6041795 18.7565473 35.8712793 18.6389631 36.2334709 18.4225013 36.5535166 18.1178514 36.8011239 17.7824693 36.9460005"></polygon>
                        <g id="Group-8" transform="translate(0.000000, 45.000000)">
                            <mask id="mask-4" fill="white">
                                <use xlink:href="#path-3"></use>
                            </mask>
                            <g id="Clip-7"></g>
                            <path d="M15.7852,0.185670588 L19.5052,0.901317647 L18.3478667,8.12896471 L20.6558667,8.60261176 L19.5865333,14.3057882 L21.5812,14.6966118 L20.8278667,18.7096706 L19.7558667,19.0344941 L19.8025333,19.0500235 L19.9252,19.0849647 C26.3305333,20.0076706 19.5265333,35.1320235 19.4892,40.0095529 L19.3518667,40.6436706 L19.2132,41.2156706 L19.1172,41.6996706 L19.0545333,42.0917882 L18.9798667,42.3700235 L18.9478667,42.5499059 L18.9318667,42.6120235 L18.9012,42.6275529 L18.7838667,42.6586118 L18.5652,42.7090824 L18.2785333,42.7763765 C17.1012,43.0080235 15.7905333,43.0183765 14.5945333,42.9873176 L13.6465333,42.9252 L12.5745333,42.8074353 L11.3852,42.6430824 C8.26386667,42.1280235 2.71186667,40.9840235 0.163866667,38.9444941 L0.0652,38.8409647 L0.0158666667,38.7801412 L-0.000133333333,38.7646118 L0.0158666667,38.6973176 L0.0478666667,38.5213176 C1.0252,33.7926118 1.97586667,29.0639059 2.9452,24.3352 L3.07853333,23.6648471 L3.2012,23.0617882 C3.98253333,19.8472 3.5892,16.6584941 7.80386667,16.7930824 L7.93453333,16.7930824 L7.43053333,16.0619059 L8.2692,11.9815529 L10.5785333,12.2908471 L11.4318667,7.01084706 L13.9585333,7.32014118 L15.7852,0.185670588" id="Fill-6" fill="#FFFFFF" mask="url(#mask-4)"></path>
                        </g>
                    </g>
                </g>
            </g>
        </g>
    </g>
</svg>