<svg xmlns="http://www.w3.org/2000/svg" width="30" height="30" viewBox="0 0 30 30">
  <g fill="none" fill-rule="evenodd">
    <circle cx="15" cy="15" r="15" fill="#283A97"/>
    <path fill="#FFF" fill-rule="nonzero" d="M24,9.77573131 C23.3386159,10.0769231 22.6265186,10.2806067 21.8795561,10.3716143 C22.6423665,9.9035753 23.2276808,9.16143012 23.5034336,8.27735645 C22.7892236,8.71072589 22.0000001,9.02600217 21.156894,9.19501625 C20.4849446,8.45937161 19.524564,8 18.4617011,8 C16.4236661,8 14.770206,9.69555796 14.770206,11.7865655 C14.770206,12.0834236 14.8019018,12.3716143 14.8652933,12.6489707 C11.7960908,12.4907909 9.0755415,10.9848321 7.25303737,8.69122427 C6.93502388,9.25243771 6.7533015,9.9035753 6.7533015,10.5969664 C6.7533015,11.9100758 7.40517713,13.0693391 8.39619638,13.7486457 C7.79186475,13.7302275 7.22134163,13.5579632 6.7226625,13.276273 L6.7226625,13.3228602 C6.7226625,15.1581798 7.995774,16.6890574 9.6862125,17.035753 C9.37665075,17.1245937 9.05018475,17.1690141 8.71315388,17.1690141 C8.47543575,17.1690141 8.24300063,17.1462622 8.01796088,17.1018418 C8.48811412,18.6056338 9.85103025,19.7009751 11.467512,19.7302275 C10.203909,20.7464789 8.61067087,21.3521127 6.88114088,21.3521127 C6.58320113,21.3521127 6.28843087,21.3347779 6,21.3001083 C7.63444275,22.3726977 9.57633375,23 11.6608556,23 C18.4543054,23 22.1679874,17.2307692 22.1679874,12.2264355 C22.1679874,12.0617552 22.1648179,11.8970747 22.1584785,11.7356446 C22.8800846,11.2015168 23.5066031,10.5352113 24,9.77573131"/>
  </g>
</svg>
